<?xml version="1.0" encoding="UTF-8"?>
<svg
  xmlns="http://www.w3.org/2000/svg"
  xmlns:xlink="http://www.w3.org/1999/xlink"
  viewBox="0 0 974.0686 361.0747"
>
  <defs>
    <filter id="blur" x="0" y="0">
      <feGaussianBlur in="SourceGraphic" stdDeviation="5" />
    </filter>
    <clipPath id="right">
      <path
        d="M270.6517,342.818c-37.0761,0-77.03,4.36-112.1029-10.0663-30.4552-12.5271-52.672-43.9731-64.7268-73.5236-6.8472-16.7847-10.9628-34.6977-14.4707-52.4363-3.548-17.9412-8.5732-38.21-5.2045-56.404,6.6548-35.9423,23.4688-71.8335,49.114-97.8721,25.2259-25.6128,63.4028-34.2287,97.9841-36.6794,37.4108-2.6513,79.0748-2.7959,115.12,8.9044,33.0439,10.7262,66.1907,40.28,86.9737,67.5878,10.6814,14.0345,22.1977,29.8629,21.069,48.3705-1.0858,17.8032-9.0663,36.5209-14.6415,53.3348-12.6338,38.1014-32.406,82.2313-61.1111,111.07-25.19,25.3078-62.4527,38.7087-98.0007,38.7087l-.0023-.9946C252.5547,342.818,270.6525,343.15,270.6517,342.818Z"
        fill="none"
      />
    </clipPath>
    <clipPath id="left">
      <path
        d="M906.0343,164.1761c-10,69.687-27.7926,142.7487-99.314,170.8426-32.959,12.9463-73.1818,8.465-107.4158,3.8541-14.2826-1.9237-34.1218-2.24-46.6165-9.8673-14.1317-8.6268-26.6964-24.1867-38.0506-36.0371-25.4422-26.5542-38.9907-54.7289-50.894-89.2489-6.2126-18.0168-12.3382-36.8372-15.9927-55.5735-3.4525-17.701,3.2076-32.2476,13.0579-46.6411,19.1783-28.0241,47.1631-55.2468,77.9508-70.1752C673.262,14.6,715.0688,13.4168,752.6432,15.5605c38.8027,2.2138,80.4315,10.3971,109.0887,38.93,30.2723,30.141,38.7757,68.9305,44.3024,109.6856C904.3978,175.5813,904.6614,154.0518,906.0343,164.1761Z"
        fill="none"
      />
    </clipPath>
  </defs>
  <title>Hugh’s Vlog Logo</title>
  <g clip-path="url(#right)">
    <rect id="right-black-background" x="74.0505" y="-89.7295" width="767.942" height="575.9565" fill="#131313" />
    <rect id="right-white" x="74.0505" y="-89.7295" width="109.706" height="383.971" fill="#e6e6e6" />
    <rect id="right-yellow" x="183.7564" y="-89.7295" width="109.706" height="383.971" fill="#e6e600" />
    <rect id="right-teal" x="293.4625" y="-89.7295" width="109.706" height="383.971" fill="#00e6e6" />
    <rect id="right-green" x="403.1685" y="-89.7295" width="109.706" height="383.971" fill="#00e600" />
    <!-- <rect x="512.8745" y="-89.7295" width="109.706" height="383.971" fill="#e600e6" /> -->
    <!-- <rect x="622.5805" y="-89.7295" width="109.706" height="383.971" fill="#e60000" /> -->
    <!-- <rect x="732.2865" y="-89.7295" width="109.706" height="383.971" fill="#0000e6" /> -->
    <rect id="right-lower-blue" x="74.0505" y="294.2415" width="109.706" height="47.9964" fill="#0000e6" />
    <rect id="right-lower-pink" x="293.4625" y="294.2415" width="109.706" height="47.9964" fill="#e600e6" />
    <!-- <rect x="512.8745" y="294.2415" width="109.706" height="47.9964" fill="#00e6e6" /> -->
    <!-- <rect x="732.2865" y="294.2415" width="109.706" height="47.9964" fill="#e6e6e6" /> -->
    <!-- <rect x="74.0505" y="342.2379" width="137.1325" height="143.9891" fill="#0064e6" /> -->
    <!-- <rect x="211.183" y="342.2379" width="137.1325" height="143.9891" fill="#fff" /> -->
    <!-- <rect x="348.3155" y="342.2379" width="137.1325" height="143.9891" fill="#6c00e6" /> -->
    <!-- <rect x="622.5805" y="342.2379" width="36.5687" height="143.9891" fill="#090909" /> -->
    <!-- <rect x="695.7178" y="342.2379" width="36.5687" height="143.9891" fill="#1d1d1d" /> -->
  </g>
  <g clip-path="url(#left)">
    <rect id="left-black-background" x="144.6875" y="-91.1457" width="767.942" height="575.9565" fill="#131313" />
    <!-- <rect x="144.6875" y="-91.1457" width="109.706" height="383.971" fill="#e6e6e6" /> -->
    <!-- <rect x="254.3934" y="-91.1457" width="109.706" height="383.971" fill="#e6e600" /> -->
    <!-- <rect x="364.0995" y="-91.1457" width="109.706" height="383.971" fill="#00e6e6" /> -->
    <rect id="left-green" x="473.8055" y="-91.1457" width="109.706" height="383.971" fill="#00e600" />
    <rect id="left-pink" x="583.5115" y="-91.1457" width="109.706" height="383.971" fill="#e600e6" />
    <rect id="left-red" x="693.2174" y="-91.1457" width="109.706" height="383.971" fill="#e60000" />
    <rect id="left-blue" x="802.9234" y="-91.1457" width="109.706" height="383.971" fill="#0000e6" />
    <!-- <rect x="144.6875" y="292.8253" width="109.706" height="47.9964" fill="#0000e6" /> -->
    <!-- <rect x="364.0995" y="292.8253" width="109.706" height="47.9964" fill="#e600e6" /> -->
    <rect id="left-lower-teal" x="583.5115" y="292.8253" width="109.706" height="47.9964" fill="#00e6e6" />
    <rect id="left-lower-white" x="802.9234" y="292.8253" width="109.706" height="47.9964" fill="#e6e6e6" />
    <!-- <rect x="144.6875" y="340.8217" width="137.1325" height="143.9891" fill="#0064e6" /> -->
    <!-- <rect x="281.82" y="340.8217" width="137.1325" height="143.9891" fill="#fff" /> -->
    <!-- <rect x="418.9525" y="340.8217" width="137.1325" height="143.9891" fill="#6c00e6" /> -->
    <!-- <rect x="693.2174" y="340.8217" width="36.5687" height="143.9891" fill="#090909" /> -->
    <!-- <rect x="766.3548" y="340.8217" width="36.5687" height="143.9891" fill="#1d1d1d" /> -->
  </g>
  <path
    d="M254.2124.2581c43.7787-.9225,89.0784,4.7359,127.45,27.1849,18.199,10.6472,33.3781,24.5356,48.22,39.3562,12.77,12.7513,29.203,38.21,48.4053,40.0253,20.3809,1.9272,38.3947.5915,52.9874-14.0594,15.9919-16.0557,31.842-32.7276,49.3419-47.159C615.4844,16.8528,656.329,4.18,700.9734,1.7277c45.73-2.512,92.3442-.8714,134.7942,18.1254,17.6989,7.92,34.4477,18.5191,48.0262,32.4571,14.9646,15.3608,24.1773,34.7407,34.4671,53.31,4.8807,8.808,9.2537,19.9232,16.1915,27.3961,8.4527,9.1046,18.678,6.44,29.4965,9.6644,8.9812,2.6765,10.6292,8.6847,10,17.409-.4623,6.4136-1.1848,23.1175-7.5773,27.18-5.3954,3.4291-14.4419.8414-20.7031,4.0858-8.329,4.3158-12.1662,12.1336-16.2586,20.1343-10.2552,20.0486-19.3207,40.7164-29.7309,60.6723-17.7844,34.0917-51.5545,70.0642-91.157,77.6139-46.4761,8.86-95.6969,8.3877-141.4744-3.08-40.3339-10.1046-74.1175-40.0814-91.36-78.0747-8.9376-19.6931-21.7127-37.4835-31.2265-57.0835-8.1317-16.7526-15.8466-39.3127-34.7751-46.4523-44.92-16.9436-60.8269,43.23-78.0492,71.8487-20.5883,34.212-38.5262,73.6665-72.8917,96.28-37.8964,24.9372-86.3507,26.7828-130.3254,27.8068-43.2929,1.0082-87.7879-12.2831-119.3347-42.8242C76.5551,286.7045,68.052,241.28,43.6513,204.6589A27.7857,27.7857,0,0,0,25.5236,192.14c-5.8413-1.2491-13.5434.0935-18.24-4.3433-6.3957-6.0413-10.6764-37.2973-3.6942-42.7824,5.71-4.4856,16.7137-1.5089,23.499-2.8612,9.824-1.9579,15.9622-7.9538,21.2869-16.1157C60.18,107.9417,69.1643,88.191,81.68,70.5057c24.7988-35.0419,62.9455-54.8319,104.1549-64.12C208.4507,1.2878,231.1174.2581,254.2124.2581,281.77-.3226,249.38.2581,254.2124.2581ZM269.9047,337.6c16.9378,0,29.2451-4.6388,45.3562-9.032,6.703-1.8278,13.8708-2.5662,20.2272-5.5429,7.4094-3.47,12.8288-10.05,19.3255-14.912,27.705-20.7345,43.0329-55.735,56.9171-86.4,7.6651-16.9294,13.4762-34.1154,18.8338-51.8832,5.1352-17.0306,10.3724-33.439,2.2635-50.5175-14.8913-31.3636-45.6717-58-73.9906-77.0059-29.8565-20.0373-70.2353-21.8881-105.0788-21.93-36.1918-.0432-72.4165,2.9192-104.6832,20.6792-31.7166,17.4573-49.0693,49.7182-60.8939,82.6835-6.2179,17.3346-9.5715,33.443-7.5363,51.8022a383.4873,383.4873,0,0,0,10.1927,53.7271c9.1132,35.1554,27.7668,72.1917,59.711,91.9122C185.2917,342.629,269.904,337.28,269.9047,337.6ZM887.8667,111.263c-2.7685-6.7858-3.7081-13.6568-7.3453-20.13-4.2816-7.62-10.1017-14.8482-15.2766-21.8788C844.973,41.7131,810.297,28.5789,777.4921,24.0451c-36.84-5.0915-77.6607-5.5877-113.7092,4.5738-32.06,9.0373-59.4714,31.2817-81.34,55.8468-10.2244,11.4849-21.2762,24.908-26.6091,39.5661-6.1579,16.9254.2566,33.5285,4.8093,50.0943,8.8494,32.1993,19.4434,67.8492,39.8834,94.7823a275.3643,275.3643,0,0,0,37.9214,40.39c12.7488,10.9566,20.4409,16.4846,37.2251,19.8017,35.7639,7.068,71.3041,9.8029,107.5235,5.3424,33.4226-4.1161,61.1931-24.7025,80.1729-52.3468,23.7695-34.62,30.1767-76.6279,36.0117-117.2925C898.058,155.0491,895.0152,128.7841,887.8667,111.263Z"
    fill="#fff"
  />
</svg>
